<svg xmlns="http://www.w3.org/2000/svg" viewBox="0 0 190.79 190.79"><path fill="#fff" d="M95.39,18.35a77,77,0,1,1-77,77.05,77.13,77.13,0,0,1,77-77.05m0-16.5A93.55,93.55,0,1,0,188.94,95.4,93.54,93.54,0,0,0,95.39,1.85Z"/><path fill="#fff" d="M63.25,47.24h38.24c20.66,0,31.66,9,31.66,25.35,0,11.94-7,18.11-13.69,20.79,10.06,3.22,16.77,11.54,16.77,23.35,0,16.9-12.47,26.83-32.33,26.83H63.25ZM99.88,87.08c11,0,17-4.29,17-12.75s-6-12.61-17-12.61H79.76V87.08Zm-20.12,42H103c10.87,0,16.77-5.64,16.77-13.82s-5.9-13.68-16.77-13.68H79.76Z"/></svg>